<?xml version="1.0" encoding="UTF-8"?>
<svg version="1.1" xmlns="http://www.w3.org/2000/svg" viewBox="0 0 1755 896">
<path d="M0 0 C579.15 0 1158.3 0 1755 0 C1755 295.68 1755 591.36 1755 896 C1175.85 896 596.7 896 0 896 C0 600.32 0 304.64 0 0 Z " fill="#1A1E2E" transform="translate(0,0)"/>
<path d="M0 0 C1.76349444 1.50516491 3.51330548 3.02649018 5.25 4.5625 C6.21292969 5.40425781 7.17585938 6.24601562 8.16796875 7.11328125 C11.26495475 9.85849715 14.2755126 12.68533143 17.25 15.5625 C17.73581543 16.03075195 18.22163086 16.49900391 18.72216797 16.98144531 C43.69905927 41.46597558 58.73362715 75.22015692 64.9375 109.25 C65.11684082 110.22864014 65.11684082 110.22864014 65.29980469 111.22705078 C67.16551869 122.14823751 67.39909873 133.11353111 67.39526367 144.16845703 C67.39826375 145.59240811 67.4016682 147.01635838 67.40544128 148.44030762 C67.41419416 152.27072923 67.41661554 156.10112844 67.41725707 159.93155909 C67.41797197 162.33111327 67.42011443 164.7306619 67.42275429 167.13021469 C67.43197526 175.51894233 67.43609282 183.90765418 67.43530273 192.29638672 C67.43470118 200.08993779 67.44527665 207.88341983 67.4610464 215.67695343 C67.47415086 222.39492144 67.47948549 229.11286694 67.47884732 235.83084762 C67.47859341 239.83171585 67.48138595 243.83252246 67.49202538 247.83337784 C67.50175683 251.59440142 67.50175124 255.35530502 67.49450874 259.11633301 C67.49297721 261.13964423 67.50127208 263.16295558 67.50994873 265.18624878 C67.45190482 282.13618621 62.73851232 296.65727669 51 309.25 C40.32028397 319.34548649 27.2018382 323.20717288 12.78027344 323.01660156 C11.59833908 323.01718567 10.41640472 323.01776978 9.19865417 323.01837158 C5.33525063 323.01560967 1.4726419 322.98460623 -2.390625 322.953125 C-5.08631964 322.94341642 -7.78201357 322.93976909 -10.47772217 322.93597412 C-16.82045653 322.92360739 -23.16291075 322.89087267 -29.50552249 322.85057616 C-37.44503388 322.80124334 -45.38459204 322.77953252 -53.32421875 322.7578125 C-67.46636332 322.71900413 -81.60789777 322.63885208 -95.75 322.5625 C-95.75 288.5725 -95.75 254.5825 -95.75 219.5625 C-95.09 219.5625 -94.43 219.5625 -93.75 219.5625 C-93.82927734 217.80679688 -93.82927734 217.80679688 -93.91015625 216.015625 C-93.88483099 199.5614444 -80.77594649 183.60413063 -69.75 172.5625 C-69.01910156 171.82 -68.28820312 171.0775 -67.53515625 170.3125 C-54.31433707 157.7071752 -35.97238135 150.24832101 -17.75 150.5625 C-16.71184908 142.03784997 -16.71184908 142.03784997 -17.75 133.5625 C-18.33265625 133.59730469 -18.9153125 133.63210938 -19.515625 133.66796875 C-39.80583854 134.33792863 -58.52534008 123.26384925 -72.9375 109.8125 C-87.28736719 94.7183451 -94.4347187 76.5282588 -97.21484375 56.15625 C-97.5179886 53.37818071 -97.5179886 53.37818071 -99.9375 51.625 C-103.3851758 50.3225447 -105.23139105 50.56811051 -108.75 51.5625 C-112.01674931 53.23119153 -112.01674931 53.23119153 -112.3046875 56.29296875 C-112.41039062 57.43378906 -112.51609375 58.57460938 -112.625 59.75 C-115.40734752 81.73952071 -126.39013286 101.10891016 -143.1875 115.4375 C-162.89828458 130.68125125 -182.61406386 133.88916957 -206.73046875 133.7578125 C-208.75498819 133.75407636 -210.77950946 133.75123223 -212.80403137 133.74923706 C-218.09922389 133.74164794 -223.39430445 133.72204063 -228.68945312 133.6998291 C-234.10610439 133.6792683 -239.52277398 133.67021357 -244.93945312 133.66015625 C-255.54301759 133.63878977 -266.14649944 133.60471165 -276.75 133.5625 C-276.76399846 131.65195793 -276.77395749 129.741386 -276.78222656 127.83081055 C-276.78820862 126.76686569 -276.79419067 125.70292084 -276.800354 124.60673523 C-276.68784473 117.80479939 -275.10719032 111.20527548 -273.75 104.5625 C-273.62141602 103.8912207 -273.49283203 103.21994141 -273.36035156 102.52832031 C-266.81615077 68.60837879 -249.53505715 39.21378077 -225.75 14.5625 C-225.01394531 13.77488281 -224.27789062 12.98726563 -223.51953125 12.17578125 C-165.42084756 -48.4627356 -64.57219944 -51.88010285 0 0 Z " fill="#5769FC" transform="translate(427.75,294.4375)"/>
<path d="M0 0 C115.75547768 0 115.75547768 0 142.5625 25.9375 C156.70098865 40.22806021 164.67929797 58.31468726 168 78 C168.18433594 79.08667969 168.36867188 80.17335938 168.55859375 81.29296875 C171.76892899 108.2541028 166.06605753 136.45792497 149.22583008 158.16723633 C134.42909138 176.18914526 114.00405195 183.49898701 92 189 C61.64 189 31.28 189 0 189 C0 126.63 0 64.26 0 0 Z " fill="#162696" transform="translate(603,343)"/>
<path d="M0 0 C11.62309749 -0.06982282 23.24614425 -0.12297416 34.86940956 -0.15543652 C40.26783333 -0.17102477 45.66611253 -0.1921367 51.06445312 -0.22631836 C56.28403499 -0.25915749 61.50347869 -0.27690431 66.72315598 -0.28463173 C68.70444282 -0.29013149 70.68572297 -0.30086983 72.66695023 -0.31719017 C101.67763313 -0.54644056 121.97131276 7.40200322 142.8984375 27.85546875 C156.18583859 41.95454366 163.18792059 61.85651484 163.11352539 80.95263672 C163.11367142 81.9386235 163.11381744 82.92461029 163.1139679 83.94047546 C163.11327339 87.18690216 163.10550262 90.43327088 163.09765625 93.6796875 C163.09579043 95.93555673 163.0943673 98.19142636 163.09336853 100.44729614 C163.08955627 106.37545903 163.07973701 112.3035973 163.06866455 118.23175049 C163.05842266 124.28470527 163.05386496 130.33766404 163.04882812 136.390625 C163.03811358 148.26042747 163.02105266 160.13021168 163 172 C147.07429727 172.14066936 131.14876451 172.24621367 115.22259331 172.31087303 C107.82640589 172.3417045 100.43060631 172.38367707 93.03466797 172.45263672 C86.58221756 172.51277019 80.13004824 172.55122683 73.67732537 172.56453097 C70.26603424 172.57229815 66.85554667 172.59032141 63.44451523 172.63438034 C44.56960101 172.85117341 31.10675117 172.34398892 16.40234375 159.41015625 C4.57811962 147.54747936 -0.20641343 132.2658903 -0.24884033 115.82313538 C-0.24164978 114.69024582 -0.23445923 113.55735626 -0.22705078 112.39013672 C-0.22734283 111.16948013 -0.22763489 109.94882355 -0.22793579 108.69117737 C-0.22678907 105.3756594 -0.21682526 102.06039689 -0.20278788 98.74492407 C-0.19020374 95.26828116 -0.18910401 91.7916341 -0.18673706 88.31497192 C-0.1805447 81.74561074 -0.16416459 75.17631688 -0.14403808 68.60698521 C-0.12160882 61.12202011 -0.11066806 53.63705162 -0.10064721 46.15206122 C-0.07979612 30.76800195 -0.04466426 15.38400969 0 0 Z " fill="#5769FC" transform="translate(151,445)"/>
<path d="M0 0 C34 0 34 0 42.4375 8.0625 C45.40234375 13.0703125 45.40234375 13.0703125 46.71435547 15.60644531 C48.62487624 19.16336624 51.03990031 22.24911598 53.5 25.4375 C54.39610175 26.65971057 55.28797025 27.88503509 56.17578125 29.11328125 C65.02819018 41.30456402 74.01410375 53.38726116 83.1652832 65.35595703 C87.26366371 70.71641335 91.33557771 76.09499067 95.375 81.5 C101.46520368 89.64155536 107.61974708 97.73096247 113.92578125 105.70703125 C114.41747803 106.3294873 114.9091748 106.95194336 115.41577148 107.59326172 C116.35703751 108.78287584 117.30040692 109.97083016 118.24633789 111.15673828 C118.67809326 111.70185059 119.10984863 112.24696289 119.5546875 112.80859375 C119.93093262 113.28095459 120.30717773 113.75331543 120.69482422 114.23999023 C122.56125075 116.75683813 124.2619134 119.39287011 126 122 C126.33 81.74 126.66 41.48 127 0 C139.87 0 152.74 0 166 0 C166 62.37 166 124.74 166 189 C129 189 129 189 120.5 181.0625 C117.625 176.06640625 117.625 176.06640625 116.33203125 173.49267578 C114.18202922 169.46930322 111.344883 166.048249 108.5 162.5 C107.42499269 161.09764636 106.3533861 159.69267941 105.28515625 158.28515625 C101.86540372 153.81285591 98.40223356 149.3749821 94.9375 144.9375 C88.97483162 137.2944058 83.12985579 129.56960547 77.33886719 121.79589844 C75.33606404 119.10942508 73.32413842 116.42986433 71.3125 113.75 C60.875 99.83333333 50.4375 85.91666667 40 72 C39.67 110.61 39.34 149.22 39 189 C26.13 189 13.26 189 0 189 C0 126.63 0 64.26 0 0 Z " fill="#152696" transform="translate(1086,343)"/>
<path d="M0 0 C12.20603568 9.30521856 23.88150751 23.44850348 26.42651367 39.10131836 C28.96700967 59.73247779 26.58404333 79.09162125 13.81640625 96.0859375 C11.66554863 98.52725282 9.44699488 100.80938963 7.09375 103.0546875 C6.56652344 103.60125 6.03929687 104.1478125 5.49609375 104.7109375 C-10.73797748 120.32221828 -32.2855647 121.63230276 -53.5 121.29296875 C-58.77273898 121.18819852 -58.77273898 121.18819852 -59.90625 120.0546875 C-61.081875 119.8690625 -62.2575 119.6834375 -63.46875 119.4921875 C-75.60725363 116.8550685 -86.42269988 109.93245464 -94.90625 101.0546875 C-95.85371094 100.13623047 -95.85371094 100.13623047 -96.8203125 99.19921875 C-106.63221155 89.06313802 -112.08458573 73.97602791 -112.90625 60.0546875 C-112.98230469 59.01183594 -113.05835938 57.96898437 -113.13671875 56.89453125 C-113.8581323 38.6642158 -108.39254521 23.53449644 -96.46875 9.8046875 C-94.96235736 8.20760902 -93.44239375 6.62317112 -91.90625 5.0546875 C-91.31585937 4.42820312 -90.72546875 3.80171875 -90.1171875 3.15625 C-65.56192269 -20.74997698 -26.7273527 -17.89008286 0 0 Z " fill="#162696" transform="translate(899.90625,412.9453125)"/>
<path d="M0 0 C1.05896484 -0.01160156 2.11792969 -0.02320313 3.20898438 -0.03515625 C19.46162963 0.02492747 34.35733724 6.97733403 45.74609375 18.43359375 C62.16288806 36.37531525 62.4375 54.19999331 62.4375 78.375 C32.4075 78.375 2.3775 78.375 -28.5625 78.375 C-23.02912431 90.54842652 -20.33843059 95.3652397 -8.5625 100.375 C0.50965324 103.39905108 13.32230099 102.49466713 21.9921875 98.73046875 C26.39423818 96.29035439 30.45746047 93.44852293 34.4375 90.375 C42.92062849 93.89053072 50.41345946 104.91423135 55.4375 112.375 C55.4375 113.365 55.4375 114.355 55.4375 115.375 C39.99208688 130.21640255 20.11788813 134.86583663 -0.70898438 134.65869141 C-16.44118613 134.29416478 -30.12177961 130.34419163 -42.5625 120.375 C-43.34496094 119.75625 -44.12742187 119.1375 -44.93359375 118.5 C-50.5552394 113.79791527 -54.70902266 108.59119337 -58.5625 102.375 C-59.243125 101.28445313 -59.92375 100.19390625 -60.625 99.0703125 C-62.75705494 95.29829375 -63.8017732 91.51750575 -64.75 87.3125 C-64.91435547 86.63123047 -65.07871094 85.94996094 -65.24804688 85.24804688 C-69.75938709 66.23466563 -67.48126912 48.43806919 -57.875 31.375 C-47.98886087 15.66046542 -33.4290778 5.77417565 -15.64355469 1.01220703 C-10.43014158 -0.06600281 -5.30542742 -0.05833702 0 0 Z " fill="#162796" transform="translate(1343.5625,399.625)"/>
<path d="M0 0 C2.453125 1.99609375 2.453125 1.99609375 4 4 C3.59739191 7.28697094 2.23868231 9.3195621 0.234375 11.8984375 C-0.32636719 12.62546875 -0.88710937 13.3525 -1.46484375 14.1015625 C-2.05394531 14.85179687 -2.64304687 15.60203125 -3.25 16.375 C-3.82363281 17.1175 -4.39726563 17.86 -4.98828125 18.625 C-8.24349573 22.82192801 -11.57330971 26.94207728 -15 31 C-17.3710173 29.86328952 -19.60220146 28.63587819 -21.85546875 27.2734375 C-32.02954028 21.47672148 -40.99376053 20.305351 -52.57421875 22.484375 C-60.48176043 25.03218804 -66.55019851 30.70684539 -70.8125 37.65625 C-75.23555275 46.38595938 -75.42138775 57.38256838 -72.5625 66.625 C-69.25302664 74.63253695 -63.6323184 80.98937542 -56 85.125 C-47.51368012 88.42457612 -37.37387216 88.96755411 -28.8671875 85.4921875 C-24.562205 83.48294388 -20.38112447 81.38112447 -17 78 C-14.16177705 78.15215216 -13.15114059 78.84271022 -11.17578125 80.8984375 C-10.56089844 81.71570313 -9.94601562 82.53296875 -9.3125 83.375 C-5.62160718 88.21062462 -1.75449965 92.8476908 2.21484375 97.45703125 C4.05427393 100.07731363 4.64379376 101.85068448 5 105 C3.5459375 105.99 3.5459375 105.99 2.0625 107 C-5.72208499 113.61134815 -10.17800837 124.72320386 -14 134 C-14.66 134 -15.32 134 -16 134 C-16.37511719 135.23943359 -16.37511719 135.23943359 -16.7578125 136.50390625 C-18.17625885 140.49607443 -19.95612483 144.16751663 -21.875 147.9375 C-22.38353516 148.95360352 -22.38353516 148.95360352 -22.90234375 149.99023438 C-24.48502283 153.12851248 -25.9989342 155.99855048 -28.09130859 158.84423828 C-31.31925965 164.50972029 -30.60550178 171.13468409 -30.609375 177.46484375 C-30.62437332 178.86733393 -30.64110392 180.26980655 -30.65948486 181.67225647 C-30.7029863 185.34319923 -30.72311876 189.01390381 -30.73822021 192.68505859 C-30.75785393 196.43926986 -30.79981661 200.19322621 -30.83984375 203.94726562 C-30.91495899 211.29810826 -30.96536287 218.64884328 -31 226 C-34.3 226 -37.6 226 -41 226 C-41.33 225.01 -41.66 224.02 -42 223 C-42.68191406 223.48597656 -43.36382813 223.97195313 -44.06640625 224.47265625 C-49.37642587 227.23726034 -55.16514027 226.61094414 -61 226 C-66.86716227 223.32375054 -71.54840524 218.00859609 -74 212 C-74.79857032 204.33137615 -74.25275885 197.28259147 -69.8125 190.8125 C-63.99820522 184.99820522 -59.89945628 183.56352302 -51.84375 183.46875 C-49 184 -49 184 -42 188 C-41.67 179.42 -41.34 170.84 -41 162 C-39.35 162 -37.7 162 -36 162 C-35.80664062 161.10796875 -35.61328125 160.2159375 -35.4140625 159.296875 C-35.15367187 158.12640625 -34.89328125 156.9559375 -34.625 155.75 C-34.36976563 154.58984375 -34.11453125 153.4296875 -33.8515625 152.234375 C-33.13510668 149.51315749 -32.29888934 147.45880287 -31 145 C-30.731875 143.845 -30.46375 142.69 -30.1875 141.5 C-29.07097261 136.70073307 -27.10691591 132.3281212 -25.12109375 127.83203125 C-24.08066044 125.20375895 -23.4527367 122.78255026 -23 120 C-23.86786133 120.16153564 -24.73572266 120.32307129 -25.62988281 120.48950195 C-30.99501152 121.30220002 -36.33298036 121.18444988 -41.75 121.1875 C-42.87921875 121.19974609 -44.0084375 121.21199219 -45.171875 121.22460938 C-64.64316271 121.25841369 -80.41180491 114.60967545 -94.64453125 101.4140625 C-106.52797347 89.23501227 -113.33602743 71.87273743 -113.4375 54.9375 C-113.18876778 36.3530905 -106.63825776 19.68982371 -93.75 6.25 C-67.8786576 -18.52719286 -29.06571497 -19.75683058 0 0 Z " fill="#172796" transform="translate(1057,413)"/>
<path d="M0 0 C57.6203203 0 57.6203203 0 73.75 15.53515625 C83.67476999 26.40760394 88.63685911 40.38357913 89 55 C89.061875 55.74765625 89.12375 56.4953125 89.1875 57.265625 C89.96595581 71.56975043 84.96368797 89.94379734 75.9140625 101.05859375 C66.96503478 110.13546472 57.44695406 114.92550766 45 117 C30.15 117 15.3 117 0 117 C0 78.39 0 39.78 0 0 Z " fill="#1A1E2E" transform="translate(643,379)"/>
<path d="M0 0 C12.21 0 24.42 0 37 0 C37 15.51 37 31.02 37 47 C46.9 47 56.8 47 67 47 C67 57.56 67 68.12 67 79 C57.1 79 47.2 79 37 79 C37.07424704 85.93825833 37.15730538 92.87528623 37.26245117 99.81298828 C37.29556457 102.16969275 37.32363813 104.52647394 37.34643555 106.88330078 C37.38023192 110.28451012 37.43256061 113.68502496 37.48828125 117.0859375 C37.49467117 118.12801361 37.5010611 119.17008972 37.50764465 120.2437439 C37.66377205 128.13351944 38.42347394 135.67763745 43.375 142.0625 C50.1182662 147.03967267 59.03864696 145 67 145 C67 155.56 67 166.12 67 177 C61.063014 178.1873972 55.47313891 178.22279712 49.4375 178.25 C47.76204102 178.2809375 47.76204102 178.2809375 46.05273438 178.3125 C32.47490012 178.37546967 22.31676705 175.60390131 12.22265625 166.375 C1.4270482 154.94758792 -0.4896255 138.24491622 -0.29296875 123.26171875 C-0.28872391 122.01493851 -0.28447906 120.76815826 -0.28010559 119.4835968 C-0.26348433 115.5513328 -0.22586318 111.61960574 -0.1875 107.6875 C-0.17071336 105.0006641 -0.15854037 102.31381388 -0.14648438 99.62695312 C-0.11363521 93.08445617 -0.06360397 86.54226647 0 80 C-0.60062256 80.00523682 -1.20124512 80.01047363 -1.82006836 80.01586914 C-4.52586838 80.03658014 -7.23165177 80.04964125 -9.9375 80.0625 C-10.88302734 80.07087891 -11.82855469 80.07925781 -12.80273438 80.08789062 C-14.15141602 80.09272461 -14.15141602 80.09272461 -15.52734375 80.09765625 C-16.35999756 80.10289307 -17.19265137 80.10812988 -18.05053711 80.11352539 C-20 80 -20 80 -21 79 C-21.1007812 76.63601532 -21.13973215 74.30188689 -21.1328125 71.9375 C-21.13376923 71.23101318 -21.13472595 70.52452637 -21.13571167 69.79663086 C-21.13639333 68.30029207 -21.13454005 66.80395033 -21.13037109 65.30761719 C-21.12502257 63.00969843 -21.13031651 60.71197514 -21.13671875 58.4140625 C-21.13605797 56.96354123 -21.1347768 55.51302009 -21.1328125 54.0625 C-21.13483673 53.3708374 -21.13686096 52.6791748 -21.13894653 51.96655273 C-21.11495224 47.11495224 -21.11495224 47.11495224 -20 46 C-13.4 46 -6.8 46 0 46 C0 30.82 0 15.64 0 0 Z " fill="#162695" transform="translate(1553,355)"/>
<path d="M0 0 C1.79674049 1.46375383 3.42733991 2.97101009 5.0234375 4.6484375 C3.58325328 8.82420974 1.52092519 11.90471857 -1.1640625 15.3984375 C-1.96070313 16.44 -2.75734375 17.4815625 -3.578125 18.5546875 C-4.36960937 19.575625 -5.16109375 20.5965625 -5.9765625 21.6484375 C-6.68554688 22.56625 -7.39453125 23.4840625 -8.125 24.4296875 C-9.7360036 26.50755336 -11.35263256 28.58066819 -12.9765625 30.6484375 C-13.43804688 30.27332031 -13.89953125 29.89820313 -14.375 29.51171875 C-22.46067537 23.1678193 -30.49886616 18.55604451 -40.9140625 18.3984375 C-41.93371094 18.37265625 -42.95335937 18.346875 -44.00390625 18.3203125 C-47.44382286 18.7000142 -49.28320291 19.48691885 -51.9765625 21.6484375 C-52.58033071 25.87481495 -52.82594142 28.25854472 -50.6015625 31.8984375 C-46.12509566 34.88274873 -41.18048269 36.48772054 -36.14355469 38.3125 C-18.62140907 44.68100824 -2.66984439 50.87693135 6.0234375 68.6484375 C6.94532211 71.41409132 7.14128972 73.03127452 7.12109375 75.87890625 C7.11625977 77.08256836 7.11625977 77.08256836 7.11132812 78.31054688 C7.09875977 79.56061523 7.09875977 79.56061523 7.0859375 80.8359375 C7.08142578 81.68091797 7.07691406 82.52589844 7.07226562 83.39648438 C7.06049153 85.48049905 7.0425564 87.56447727 7.0234375 89.6484375 C6.3634375 89.6484375 5.7034375 89.6484375 5.0234375 89.6484375 C5.0853125 90.52628906 5.1471875 91.40414062 5.2109375 92.30859375 C4.81007576 99.44894351 -0.66565137 105.74484992 -5.7265625 110.5234375 C-17.22229782 119.76424012 -31.94144881 122.2283742 -46.2890625 122.1484375 C-47.47242188 122.14344238 -48.65578125 122.13844727 -49.875 122.13330078 C-59.113714 121.94948992 -66.5718219 120.68569566 -74.9765625 116.6484375 C-76.45576172 115.96201172 -76.45576172 115.96201172 -77.96484375 115.26171875 C-84.63530095 111.89419886 -90.31176534 107.48993442 -95.9765625 102.6484375 C-95.43949106 98.74597288 -94.46680704 96.57227169 -91.921875 93.58203125 C-90.99955078 92.4827832 -90.99955078 92.4827832 -90.05859375 91.36132812 C-89.41277344 90.61044922 -88.76695313 89.85957031 -88.1015625 89.0859375 C-86.83273925 87.58513747 -85.56449061 86.08385142 -84.296875 84.58203125 C-83.73242676 83.92259521 -83.16797852 83.26315918 -82.58642578 82.58374023 C-80.9795938 80.65208159 -79.46677682 78.67095164 -77.9765625 76.6484375 C-74.29357387 77.94907335 -71.69704375 79.50402933 -68.7265625 82.0234375 C-60.98625855 88.21568066 -53.35128874 90.76000676 -43.4765625 90.8984375 C-42.373125 90.92421875 -41.2696875 90.95 -40.1328125 90.9765625 C-36.62281155 90.61166141 -34.78505845 89.74463375 -31.9765625 87.6484375 C-30.77383431 85.24298112 -30.87584778 83.69846797 -30.9140625 81.0234375 C-30.92308594 80.20617187 -30.93210937 79.38890625 -30.94140625 78.546875 C-30.95300781 77.92039062 -30.96460938 77.29390625 -30.9765625 76.6484375 C-39.2720157 72.38970118 -47.8393972 68.92921634 -56.7265625 66.1484375 C-69.50801581 61.98949829 -80.15775086 55.04003938 -86.7890625 43.12890625 C-91.74303491 32.78097046 -90.39917009 22.55286914 -86.7265625 12.0859375 C-80.16182257 -0.80908736 -70.5072285 -6.92208616 -56.9765625 -11.3515625 C-56.27789063 -11.5990625 -55.57921875 -11.8465625 -54.859375 -12.1015625 C-36.96264992 -17.63188098 -14.56556547 -10.69431883 0 0 Z " fill="#162695" transform="translate(1513.9765625,412.3515625)"/>
<path d="M0 0 C6.58091513 5.25597215 11.62418865 12.02413107 12.84423828 20.52978516 C13.58306181 29.26049431 13.55411722 37.88540499 8.53515625 45.375 C8.08785156 46.07882812 7.64054688 46.78265625 7.1796875 47.5078125 C2.39957362 54.45371525 -4.04463499 59.64608566 -12.46484375 61.375 C-21.99278743 62.34484662 -29.45681076 61.82407508 -37.46484375 56.375 C-38.0475 55.99085938 -38.63015625 55.60671875 -39.23046875 55.2109375 C-46.28296564 49.97499284 -49.89344065 41.8045422 -51.46484375 33.375 C-52.34452452 24.2648813 -51.06383377 16.37305773 -46.83984375 8.25 C-34.53278976 -6.64801272 -16.99538843 -11.2045667 0 0 Z " fill="#1A1E30" transform="translate(876.46484375,439.625)"/>
<path d="M0 0 C5.094375 -0.0825 10.18875 -0.165 15.4375 -0.25 C17.82053345 -0.30462402 17.82053345 -0.30462402 20.25170898 -0.36035156 C31.45739035 -0.44802299 38.94423749 1.38735715 47.27734375 9.140625 C53.56476234 15.92704507 55.49932492 23.78572289 55.30859375 32.83984375 C54.43363424 41.79987213 50.81215983 49.13623631 44 55 C34.47289459 61.51466151 26.38666416 61.76461085 15.25 61.375 C7.70125 61.189375 7.70125 61.189375 0 61 C0 40.87 0 20.74 0 0 Z " fill="#838283" transform="translate(603,578)"/>
<path d="M0 0 C-0.94282398 3.32919292 -1.91501561 5.87868218 -3.91015625 8.72680664 C-12.65507209 21.40673622 -11.13367458 36.46673476 -11.01287842 51.234375 C-10.99124249 54.93565734 -11.01531604 58.6366394 -11.03515625 62.33789062 C-11.06732229 69.55904176 -11.05002328 76.77889964 -11 84 C-14.3 84 -17.6 84 -21 84 C-21.33 83.01 -21.66 82.02 -22 81 C-22.68191406 81.48597656 -23.36382813 81.97195313 -24.06640625 82.47265625 C-29.37642587 85.23726034 -35.16514027 84.61094414 -41 84 C-46.86716227 81.32375054 -51.54840524 76.00859609 -54 70 C-54.79857032 62.33137615 -54.25275885 55.28259147 -49.8125 48.8125 C-43.99820522 42.99820522 -39.89945628 41.56352302 -31.84375 41.46875 C-29 42 -29 42 -22 46 C-21.67 37.42 -21.34 28.84 -21 20 C-19.35 20 -17.7 20 -16 20 C-15.81824219 19.11957031 -15.63648438 18.23914063 -15.44921875 17.33203125 C-15.07216797 15.58986328 -15.07216797 15.58986328 -14.6875 13.8125 C-14.44386719 12.66394531 -14.20023438 11.51539063 -13.94921875 10.33203125 C-13.01187917 7.04169932 -12.07448597 4.71354563 -10 2 C-6.88828374 0.53964999 -3.44250276 0 0 0 Z " fill="#838385" transform="translate(1037,555)"/>
<path d="M0 0 C3.3 0 6.6 0 10 0 C10.33 8.58 10.66 17.16 11 26 C12.98 24.68 14.96 23.36 17 22 C23.72357915 20.57676062 29.38641555 21.93466148 35.1171875 25.5703125 C37.61634184 27.46801061 39.403019 29.2920757 41 32 C41 33.32 41 34.64 41 36 C41.66 36 42.32 36 43 36 C43.92002214 50.55679481 43.92002214 50.55679481 39.48828125 56.38671875 C34.53112024 61.76022924 30.00438277 64.6359652 22.5625 65.3125 C18.48541179 64.95486068 14.02424401 64.02424401 11 61 C10.67 61.99 10.34 62.98 10 64 C6.7 64 3.4 64 0 64 C0 42.88 0 21.76 0 0 Z " fill="#848485" transform="translate(804,575)"/>
<path d="M0 0 C26 0 26 0 36 4 C41.52687877 9.62384155 43.16446359 12.30278193 43.3125 20.25 C43.36857422 22.20679688 43.36857422 22.20679688 43.42578125 24.203125 C42.81421594 29.65671661 40.50979441 32.64118503 36.5 36.25 C32.71597523 38.89881734 30.12075638 40.2583886 25.453125 40.1953125 C24.69161133 40.19031738 23.93009766 40.18532227 23.14550781 40.18017578 C22.18999023 40.16196777 21.23447266 40.14375977 20.25 40.125 C15.67125 40.063125 15.67125 40.063125 11 40 C11 47.26 11 54.52 11 62 C7.37 62 3.74 62 0 62 C0 41.54 0 21.08 0 0 Z " fill="#848384" transform="translate(1058,577)"/>
<path d="M0 0 C1.9140625 1.1015625 1.9140625 1.1015625 4.7265625 3.1015625 C5.0565625 2.1115625 5.3865625 1.1215625 5.7265625 0.1015625 C9.0265625 0.1015625 12.3265625 0.1015625 15.7265625 0.1015625 C15.7265625 13.6315625 15.7265625 27.1615625 15.7265625 41.1015625 C12.4265625 41.1015625 9.1265625 41.1015625 5.7265625 41.1015625 C5.7265625 39.7815625 5.7265625 38.4615625 5.7265625 37.1015625 C5.0665625 37.1015625 4.4065625 37.1015625 3.7265625 37.1015625 C3.7265625 37.7615625 3.7265625 38.4215625 3.7265625 39.1015625 C-1.69707231 42.35574339 -6.23991988 42.88821412 -12.31640625 41.703125 C-18.9328086 39.73228175 -22.93172371 34.93699406 -26.44921875 29.17578125 C-28.54701153 23.89650178 -27.90125006 17.19378492 -26.2109375 11.8515625 C-24.02106425 6.78357012 -20.04157494 2.81735017 -15.3828125 -0.0703125 C-10.6405338 -1.93209599 -4.72442584 -1.86704114 0 0 Z " fill="#848485" transform="translate(691.2734375,597.8984375)"/>
<path d="M0 0 C1.6645214 0.9593881 3.26739605 2.02422776 4.85546875 3.10546875 C5.18546875 2.11546875 5.51546875 1.12546875 5.85546875 0.10546875 C9.15546875 0.10546875 12.45546875 0.10546875 15.85546875 0.10546875 C15.85546875 13.63546875 15.85546875 27.16546875 15.85546875 41.10546875 C12.55546875 41.10546875 9.25546875 41.10546875 5.85546875 41.10546875 C5.52546875 40.11546875 5.19546875 39.12546875 4.85546875 38.10546875 C4.27796875 38.57984375 3.70046875 39.05421875 3.10546875 39.54296875 C-1.11136776 42.47132744 -5.07390637 42.44351041 -10.14453125 42.10546875 C-16.24833814 40.90393196 -19.88028501 38.0258718 -23.734375 33.21484375 C-27.18452682 28.05395183 -27.88730292 22.18691184 -27.14453125 16.10546875 C-25.53507222 9.31556349 -22.37017 5.25589459 -16.51953125 1.35546875 C-11.3813761 -1.34882343 -5.48195609 -2.28664471 0 0 Z " fill="#848486" transform="translate(1131.14453125,597.89453125)"/>
<path d="M0 0 C2.70296451 1.06634964 4.6101979 2.30058517 7 4 C7.33 3.01 7.66 2.02 8 1 C11.3 1 14.6 1 18 1 C18 14.53 18 28.06 18 42 C14.7 42 11.4 42 8 42 C7.67 41.01 7.34 40.02 7 39 C6.01 39.66 5.02 40.32 4 41 C-0.70882745 43.66233503 -4.86875111 43.61785179 -10.0390625 42.59765625 C-15.99578053 40.83823953 -19.59842364 37.08823056 -23 32 C-25.85384425 25.05150965 -26.03569112 17.89949711 -23.1875 10.95703125 C-17.87451085 2.20108532 -9.81795439 -1.17433112 0 0 Z " fill="#838384" transform="translate(928,597)"/>
<path d="M0 0 C5.84202528 2.58881905 10.76519167 7.67882085 13.6171875 13.3828125 C14.4566909 21.38466135 14.5793875 28.03962198 9.46875 34.54296875 C4.30438893 39.674644 -0.8703339 42.08514482 -8.0703125 42.6953125 C-14.18208922 42.61549452 -19.02248262 39.74655865 -24.1953125 36.7578125 C-28.31853784 32.28116784 -30.55557088 26.34686969 -30.8203125 20.2578125 C-29.91251549 12.21732466 -27.68928481 8.02401307 -21.41796875 2.828125 C-15.01674046 -1.71785286 -7.57172542 -1.96120101 0 0 Z " fill="#858586" transform="translate(883.3828125,597.6171875)"/>
<path d="M0 0 C21.8828125 0 21.8828125 0 28.05859375 6 C28.74115234 6.99 28.74115234 6.99 29.4375 8 C29.91058594 8.66 30.38367188 9.32 30.87109375 10 C34.20706575 15.91009572 33.70094433 23.24645877 32 29.625 C30.1158825 34.7882066 26.47894657 37.96587491 22 41 C15.03580586 43.32139805 7.34090518 42 0 42 C0 28.14 0 14.28 0 0 Z " fill="#1D2131" transform="translate(614,587)"/>
<path d="M0 0 C3.3 0 6.6 0 10 0 C10.33 8.58 10.66 17.16 11 26 C12.98 24.68 14.96 23.36 17 22 C21.63437999 21.10279534 25.86830008 21.61564908 30.3125 23.125 C34.08952297 25.76013231 36.91624735 28.8324947 39 33 C39.08586809 35.32416296 39.10711043 37.65083307 39.09765625 39.9765625 C39.0962413 40.66181 39.09482635 41.3470575 39.09336853 42.05307007 C39.08776675 44.24375761 39.07521406 46.4343433 39.0625 48.625 C39.05748522 50.10937352 39.05292228 51.59374865 39.04882812 53.078125 C39.03779677 56.71878315 39.02053099 60.35938164 39 64 C35.7 64 32.4 64 29 64 C28.99589111 63.20827393 28.99178223 62.41654785 28.98754883 61.60083008 C28.95459846 58.00396748 28.88394957 54.40879525 28.8125 50.8125 C28.80669922 49.56662109 28.80089844 48.32074219 28.79492188 47.03710938 C28.92270627 39.79597695 28.92270627 39.79597695 25.671875 33.671875 C22.14169558 31.46293232 20.09050009 31.33064544 16 32 C13.09282927 34.21863029 12.16018357 35.51944929 11 39 C10.85060226 40.91765594 10.75189717 42.83946522 10.68359375 44.76171875 C10.64169922 45.87998047 10.59980469 46.99824219 10.55664062 48.15039062 C10.51732422 49.31763672 10.47800781 50.48488281 10.4375 51.6875 C10.39431641 52.86634766 10.35113281 54.04519531 10.30664062 55.25976562 C10.20048824 58.17305883 10.09843758 61.08643757 10 64 C6.7 64 3.4 64 0 64 C0 42.88 0 21.76 0 0 Z " fill="#838284" transform="translate(755,575)"/>
<path d="M0 0 C5.0771715 2.5567835 8.29817005 5.89451016 10.125 11.375 C10.125 15.005 10.125 18.635 10.125 22.375 C0.225 22.375 -9.675 22.375 -19.875 22.375 C-16.89195036 29.0976499 -16.89195036 29.0976499 -13.875 30.375 C-12.08640489 30.49707871 -10.29271619 30.55048448 -8.5 30.5625 C-7.54351563 30.57667969 -6.58703125 30.59085938 -5.6015625 30.60546875 C-2.82044559 30.37038867 -1.28378424 29.70380185 1.125 28.375 C4.01362955 28.55006846 4.91315744 29.15585252 6.9375 31.25 C7.5253125 32.301875 7.5253125 32.301875 8.125 33.375 C7.125 36.375 7.125 36.375 5.41796875 37.5078125 C4.72316406 37.83523438 4.02835938 38.16265625 3.3125 38.5 C2.62542969 38.83257813 1.93835937 39.16515625 1.23046875 39.5078125 C-5.32531559 42.20796857 -12.28137094 42.3204331 -18.84765625 39.62890625 C-23.70635211 36.62381691 -28.06731928 31.79804215 -29.875 26.375 C-29.94529121 23.80234182 -29.96870832 21.25858569 -29.9375 18.6875 C-29.93298828 17.98560547 -29.92847656 17.28371094 -29.92382812 16.56054688 C-29.91206927 14.83199462 -29.89413454 13.10348635 -29.875 11.375 C-29.215 11.375 -28.555 11.375 -27.875 11.375 C-27.854375 10.67375 -27.83375 9.9725 -27.8125 9.25 C-26.24370992 4.43904377 -22.20100895 1.78109148 -17.96875 -0.77734375 C-12.29513176 -3.07431233 -5.564816 -2.23711196 0 0 Z " fill="#838385" transform="translate(1234.875,598.625)"/>
<path d="M0 0 C6.76893064 4.08668432 10.79282072 9.51844435 13.3125 16.9375 C13.3125 18.2575 13.3125 19.5775 13.3125 20.9375 C-4.8375 20.9375 -22.9875 20.9375 -41.6875 20.9375 C-39.24450315 9.94401416 -36.84323882 5.89013877 -27.7734375 0.1015625 C-20.30551278 -4.06593107 -7.67821369 -3.58081831 0 0 Z " fill="#1A1F34" transform="translate(1356.6875,433.0625)"/>
<path d="M0 0 C4.76987291 3.24757304 9.08948476 7.45595429 10.9375 13 C11.52514976 18.99402751 10.28021895 23.10896644 6.9375 28 C3.27103462 31.97037027 -0.10677581 33.70247661 -5.4296875 34.23828125 C-11.20630267 34.40924027 -14.55043566 33.97491382 -19.0625 30 C-23.56495945 25.13247627 -24.40447032 21.69404554 -24.26953125 15.08203125 C-23.63510472 8.70185506 -20.50904216 5.04168151 -15.78125 1.1640625 C-10.99441612 -2.07792954 -5.26353973 -1.71870685 0 0 Z " fill="#5668F8" transform="translate(484.0625,259)"/>
<path d="M0 0 C3.5 1.8125 3.5 1.8125 6 4 C6.86625 4.6496875 6.86625 4.6496875 7.75 5.3125 C12.54307947 11.78315728 11.22438253 20.86531547 11.125 28.4375 C11.11597656 29.74138672 11.10695313 31.04527344 11.09765625 32.38867188 C11.07418397 35.59263832 11.04134727 38.79622264 11 42 C7.7 42 4.4 42 1 42 C0.98541748 41.23856689 0.97083496 40.47713379 0.95581055 39.69262695 C0.88119459 36.23208112 0.78457741 32.77248555 0.6875 29.3125 C0.66494141 28.11431641 0.64238281 26.91613281 0.61914062 25.68164062 C0.58369141 24.52470703 0.54824219 23.36777344 0.51171875 22.17578125 C0.48553467 21.11270752 0.45935059 20.04963379 0.43237305 18.9543457 C-0.05870356 15.59888661 -0.93763258 13.67978509 -3 11 C-7.16954718 9.74126877 -9.30237671 9.72870205 -13.375 11.3125 C-16.08089128 12.7363336 -16.08089128 12.7363336 -17 15 C-17.15411106 17.0307477 -17.24982453 19.06606421 -17.31640625 21.1015625 C-17.35830078 22.31328125 -17.40019531 23.525 -17.44335938 24.7734375 C-17.48267578 26.04445313 -17.52199219 27.31546875 -17.5625 28.625 C-17.60568359 29.90375 -17.64886719 31.1825 -17.69335938 32.5 C-17.79969886 35.66655348 -17.90172833 38.83318753 -18 42 C-21.3 42 -24.6 42 -28 42 C-28 28.47 -28 14.94 -28 1 C-25.03 1 -22.06 1 -19 1 C-19 2.32 -19 3.64 -19 5 C-18.55011719 4.6390625 -18.10023437 4.278125 -17.63671875 3.90625 C-11.92150731 -0.21694863 -6.96649333 -1.17173435 0 0 Z " fill="#838384" transform="translate(1186,597)"/>
<path d="M0 0 C2.99942956 1.05002861 5.27308776 2.32190016 8 4 C7.27633685 7.34430737 6.18284504 9.34262343 4 12 C2.7625 11.505 2.7625 11.505 1.5 11 C-2.5873983 9.83217191 -5.76923344 9.8541115 -10 10 C-9.98103266 11.92513621 -9.98103266 11.92513621 -9 14 C-6.17682402 15.66960722 -6.17682402 15.66960722 -2.75 17 C1.72908861 18.86459797 5.49488785 20.59065594 9 24 C10.72030779 28.36022713 10.40350956 32.07017361 8.5625 36.3125 C4.26696555 40.81757272 0.24884348 42.7501285 -5.9375 43.4375 C-12.06613427 43.09903499 -18.41376347 41.18743336 -23 37 C-21.62845496 34.04590299 -20.01136276 31.55991624 -18 29 C-15.50638429 30.20381448 -13.31856917 31.45428722 -11 33 C-7.57982443 33.39958487 -4.12706959 33.5635348 -1 32 C-0.97258135 30.07037022 -0.97258135 30.07037022 -2 28 C-4.29301707 26.81344524 -6.40629487 25.88025997 -8.8125 25 C-17.12374694 21.9034863 -17.12374694 21.9034863 -20 18 C-20.80587756 14.2707321 -20.65674562 10.75124192 -20 7 C-14.47609511 -0.31544161 -8.66164787 -0.93934643 0 0 Z " fill="#838485" transform="translate(737,597)"/>
<path d="M0 0 C3.3 0 6.6 0 10 0 C10 21.12 10 42.24 10 64 C6.7 64 3.4 64 0 64 C0 42.88 0 21.76 0 0 Z " fill="#818082" transform="translate(1254,575)"/>
<path d="M0 0 C2.97 0 5.94 0 9 0 C9 1.65 9 3.3 9 5 C9.66 5 10.32 5 11 5 C11.28875 4.360625 11.5775 3.72125 11.875 3.0625 C13 1 13 1 15 0 C17.6723621 -0.13415472 20.32250488 -0.04318541 23 0 C23 2.97 23 5.94 23 9 C21.7625 9.0825 20.525 9.165 19.25 9.25 C16.15496813 9.63345528 15.11588219 9.91085986 12.5625 11.875 C10.00681237 15.35073518 9.8388397 18.35132814 9.68359375 22.54296875 C9.64169922 23.61611328 9.59980469 24.68925781 9.55664062 25.79492188 C9.49766602 27.47424805 9.49766602 27.47424805 9.4375 29.1875 C9.39431641 30.31865234 9.35113281 31.44980469 9.30664062 32.61523438 C9.20050901 35.41003354 9.09845615 38.20492162 9 41 C6.03 41 3.06 41 0 41 C0 27.47 0 13.94 0 0 Z " fill="#868687" transform="translate(957,598)"/>
<path d="M0 0 C3.27981751 2.06771104 4.84746007 3.77119011 7 7 C7.6772783 12.08746258 7.82467221 16.55682364 5.25 21.0625 C1.88855845 23.95707467 0.07223365 24.86100675 -4.375 25.4375 C-9.21270423 24.85363915 -10.5875382 23.4124618 -14 20 C-16.69542917 15.95685624 -16.66452365 12.74891289 -16 8 C-14.39285226 4.84310266 -13.02561766 2.80584244 -10.25 0.625 C-6.79994008 -0.33334998 -3.51785566 -0.58048115 0 0 Z " fill="#202333" transform="translate(690,606)"/>
<path d="M0 0 C3.82209946 2.38692377 6.56170311 4.68510932 8 9 C8.53923825 14.71592544 7.63434458 17.55802329 4 22 C1.48327985 24.6035036 0.26812229 24.96524341 -3.375 25.4375 C-7.66155888 24.92015669 -9.70862423 23.75557041 -13 21 C-15.73822953 16.59257576 -15.79296128 12.03530415 -15 7 C-11.70533979 0.67678675 -6.8330434 -0.7971884 0 0 Z " fill="#1E2232" transform="translate(829,606)"/>
<path d="M0 0 C3.3258409 2.062783 6.23502468 4.47004936 8 8 C8.50872093 14.10465114 8.06705978 17.11952826 4 22 C-0.22181892 24.81454595 -4.04030209 24.80684081 -9 24 C-12.0625 21.5625 -12.0625 21.5625 -14 19 C-14.33 18.67 -14.66 18.34 -15 18 C-15.52263424 13.61733856 -16.02371348 8.98248992 -13.953125 4.97265625 C-10.0113055 0.23087926 -6.06628189 -1.1892531 0 0 Z " fill="#1E2232" transform="translate(879,606)"/>
<path d="M0 0 C3.01784991 1.75607646 5.41468217 3.82936435 7 7 C7.61766523 12.47957298 8.04431644 16.62589942 4.625 21.125 C-0.11606522 24.51147516 -4.252405 24.9217841 -10 24 C-13.95067186 20.8555877 -15.18981414 18.43628703 -16 13.5 C-16.2432526 9.25023407 -15.519882 6.5278348 -13 3 C-9.16226391 -0.28948808 -4.9095972 -1.05479627 0 0 Z " fill="#1D2131" transform="translate(1130,606)"/>
<path d="M0 0 C3.51250564 2.00714608 5.69459727 4.08379181 7 8 C7.41368897 12.2482675 7.45400171 15.90083797 5.8125 19.875 C3.6014525 22.46726259 2.19989543 23.74786701 -1 25 C-5.94129046 25.38631907 -9.08380898 24.69181771 -13.0625 21.6875 C-15.76587142 17.76998281 -15.81678359 13.49150015 -15.609375 8.859375 C-14.77178884 4.92916304 -13.35166454 3.17022414 -10.06640625 0.93359375 C-6.29317508 -0.7711364 -4.1366381 -0.72227014 0 0 Z " fill="#1E2232" transform="translate(929,606)"/>
<path d="M0 0 C3.26943797 1.71927342 5.53879992 3.78111407 6.875 7.3125 C6.91625 8.199375 6.9575 9.08625 7 10 C7.06058594 10.63292969 7.12117187 11.26585937 7.18359375 11.91796875 C7.42464367 15.81129024 7.28341529 17.55598271 5.125 20.9375 C1.29944546 24.65053823 -2.13193547 24.44607365 -7.29296875 24.42578125 C-10.30764057 23.95161209 -11.21409096 23.44176582 -13.125 21.125 C-15.82871503 16.61880828 -16.36113561 14.32675026 -16 9 C-12.93818454 2.07062816 -7.69355604 -1.74307129 0 0 Z " fill="#1D2131" transform="translate(1009,606)"/>
<path d="M0 0 C15.26785714 -0.66964286 15.26785714 -0.66964286 18.875 1.9375 C21.65266585 5.94060666 22.37774049 9.15965087 22 14 C20.75623839 17.24759977 19.91928713 18.52290161 16.83984375 20.12109375 C13.3405446 21.20409555 10.34424392 21.19335035 6.6875 21.125 C3.3771875 21.063125 3.3771875 21.063125 0 21 C0 14.07 0 7.14 0 0 Z " fill="#1E2232" transform="translate(1069,587)"/>
<path d="M0 0 C-1.47596811 4.96883505 -3.59489123 9.28781486 -6.0625 13.8125 C-6.60874023 14.8324707 -6.60874023 14.8324707 -7.16601562 15.87304688 C-9.8510721 20.8510721 -9.8510721 20.8510721 -11 22 C-11.15980437 24.44608998 -11.25929447 26.86731058 -11.31640625 29.31640625 C-11.33718735 30.04746078 -11.35796844 30.77851532 -11.37937927 31.53172302 C-11.44495024 33.87521656 -11.50379432 36.21882539 -11.5625 38.5625 C-11.60567808 40.14779855 -11.64929213 41.73308529 -11.69335938 43.31835938 C-11.8006392 47.21212037 -11.9018849 51.10599772 -12 55 C-12.33 55 -12.66 55 -13 55 C-13.02505615 54.00556885 -13.0501123 53.0111377 -13.07592773 51.98657227 C-13.16984882 48.30951253 -13.27010619 44.6326485 -13.37231445 40.95581055 C-13.41572146 39.362107 -13.45739219 37.7683552 -13.49731445 36.17456055 C-13.55487807 33.88836092 -13.61861149 31.60240551 -13.68359375 29.31640625 C-13.70030624 28.59973282 -13.71701874 27.88305939 -13.73423767 27.14466858 C-13.55018654 23.78472618 -13.55018654 23.78472618 -15 21 C-15.69142019 14.63893429 -14.37465635 8.47602547 -11 3 C-7.55675173 0.85332124 -4.04286848 0 0 0 Z " fill="#898B96" transform="translate(1037,555)"/>
<path d="M0 0 C3.0625 1.75 3.0625 1.75 5 4 C5 5.32 5 6.64 5 8 C-1.6 8 -8.2 8 -15 8 C-11.87307794 0.18269484 -8.13959027 -1.31797636 0 0 Z " fill="#212432" transform="translate(1230,606)"/>
<path d="M0 0 C-0.66 1.98 -1.32 3.96 -2 6 C-4.97 5.67 -7.94 5.34 -11 5 C-10.67 4.01 -10.34 3.02 -10 2 C-8.22265625 1.26953125 -8.22265625 1.26953125 -6.0625 0.8125 C-4.99708984 0.57466797 -4.99708984 0.57466797 -3.91015625 0.33203125 C-2 0 -2 0 0 0 Z " fill="#6B6F8E" transform="translate(1037,555)"/>
</svg>
