<?xml version="1.0" encoding="UTF-8"?>
<svg version="1.1" xmlns="http://www.w3.org/2000/svg" viewBox="0 0 2172 724">
<path d="M0 0 C716.76 0 1433.52 0 2172 0 C2172 238.92 2172 477.84 2172 724 C1455.24 724 738.48 724 0 724 C0 485.08 0 246.16 0 0 Z " fill="#FDFDFD" transform="translate(0,0)"/>
<path d="M0 0 C1.17397842 0.00173721 1.17397842 0.00173721 2.37167358 0.00350952 C13.83039524 0.03692283 24.94087233 0.58389031 36.1953125 2.91113281 C38.08914301 3.29268396 39.99790924 3.59775356 41.90625 3.8984375 C90.40550359 12.01679082 137.88693508 44.5206595 166.69921875 83.80859375 C167.53040808 84.97530905 168.35977403 86.14332508 169.1875 87.3125 C169.64463379 87.94172363 170.10176758 88.57094727 170.57275391 89.21923828 C204.97561158 136.85842999 213.88818629 189.08521262 213.72480202 246.33226132 C213.71446246 251.11018247 213.72412171 255.88807757 213.73034668 260.66600037 C213.73755163 268.66077322 213.72821382 276.6553965 213.70898438 284.65014648 C213.68710198 293.85340635 213.69437779 303.05631317 213.71629 312.25956494 C213.73449862 320.23149854 213.7369795 328.20332662 213.72653532 336.17527431 C213.72034654 340.90708042 213.71933848 345.6387208 213.73268127 350.37051582 C213.74432421 354.80578936 213.73606196 359.24060956 213.71310425 363.67583466 C213.70786736 365.29059284 213.70924347 366.90538997 213.71815491 368.52013206 C213.81274868 387.41616662 208.9522309 405.22716653 195.4296875 419.13671875 C194.31980469 420.21373047 194.31980469 420.21373047 193.1875 421.3125 C192.55070312 421.95832031 191.91390625 422.60414063 191.2578125 423.26953125 C177.98144134 435.91238262 159.60391422 438.96054233 141.96875 438.76660156 C140.52798494 438.76546903 139.08721759 438.76611482 137.64645386 438.76837158 C133.79194199 438.76950389 129.93794361 438.74623998 126.0835495 438.71807575 C122.03440562 438.6928101 117.98524571 438.69070052 113.93603516 438.68597412 C106.2936906 438.67361737 98.65157911 438.64089638 91.00933647 438.60057616 C82.29816063 438.55562897 73.58697275 438.53381414 64.87570953 438.51379442 C46.97950831 438.47215585 29.083523 438.40194835 11.1875 438.3125 C11.09364242 422.55166775 11.02331951 406.79091221 10.98025131 391.02986908 C10.95971355 383.71008404 10.93176347 376.39047364 10.88574219 369.07080078 C10.84560268 362.68352233 10.82000353 356.2963705 10.81114602 349.9089694 C10.80597644 346.53350272 10.79184596 343.15868219 10.76457977 339.78327942 C10.65572505 325.73940111 10.58587034 312.70505844 15.1875 299.3125 C15.5761322 298.14746948 15.9647644 296.98243896 16.36517334 295.78210449 C25.0828994 270.62380597 43.40138259 250.77423072 67.09057617 239.09423828 C77.1065401 234.33592111 86.89679817 231.9373649 97.875 230.90234375 C101.35122128 230.2833468 103.37086995 229.40988345 106.1875 227.3125 C108.6790904 223.5751144 108.64543285 221.73918417 108.1875 217.3125 C106.39187595 214.55920979 105.13495078 212.78622539 102.1875 211.3125 C100.50514052 211.11951113 98.82212302 210.93080686 97.13647461 210.76904297 C71.99587144 208.26534076 49.35618009 196.12323744 33.05078125 176.77734375 C20.84458822 161.37971824 12.2444416 141.93811607 10.90234375 122.23046875 C9.96311044 118.39654916 8.15709569 116.83010243 5.1875 114.3125 C2.33425563 112.88587781 0.35295451 113.00216132 -2.8125 113.3125 C-5.90073377 115.26151865 -7.54772379 116.38164614 -8.5625 119.94921875 C-8.645 120.95597656 -8.7275 121.96273437 -8.8125 123 C-11.89828932 148.07905138 -24.89166193 172.9429358 -44.25 189.34375 C-62.26818552 203.18699009 -81.76046942 210.50129989 -104.53100586 210.42602539 C-105.69270294 210.42617142 -106.85440002 210.42631744 -108.05130005 210.4264679 C-111.87666719 210.42577333 -115.70198515 210.41800227 -119.52734375 210.41015625 C-122.18534935 210.40829045 -124.84335225 210.40681809 -127.50135803 210.40586853 C-133.77330114 210.40276735 -140.0452267 210.39457039 -146.3171621 210.38451904 C-153.46107965 210.37332013 -160.60499807 210.36783795 -167.74892223 210.36282361 C-182.43679044 210.35238671 -197.12464491 210.33481087 -211.8125 210.3125 C-211.81961637 208.88688885 -211.8246652 207.46126728 -211.82885742 206.03564453 C-211.83341194 204.84480759 -211.83341194 204.84480759 -211.83805847 203.62991333 C-211.26890436 152.02411527 -183.78327958 98.91040688 -148.32568359 62.85644531 C-147.00830656 61.51228714 -145.71484001 60.14477661 -144.42578125 58.7734375 C-138.66681587 52.74834618 -132.24780075 47.67550177 -125.60791016 42.66796875 C-124.45707401 41.79912971 -123.3104877 40.92461531 -122.16943359 40.04296875 C-107.61533617 28.81666771 -90.96897524 19.86243461 -73.8125 13.3125 C-73.19197754 13.06838379 -72.57145508 12.82426758 -71.93212891 12.57275391 C-63.38235208 9.2310488 -54.75373017 6.64249113 -45.8125 4.5625 C-44.97203125 4.36390381 -44.1315625 4.16530762 -43.265625 3.96069336 C-28.95678092 0.79675861 -14.60686304 -0.06766499 0 0 Z " fill="#5A6DFC" transform="translate(325.8125,131.6875)"/>
<path d="M0 0 C120.74786234 0 120.74786234 0 142 5.8125 C143.44113159 6.1993396 143.44113159 6.1993396 144.91137695 6.59399414 C152.3830389 8.67419069 159.17856641 11.26467705 166 15 C166.98613281 15.52207031 167.97226562 16.04414063 168.98828125 16.58203125 C197.74072908 32.50589017 218.28437081 58.52371275 227.74609375 89.9765625 C236.68904892 123.21622058 233.70419207 160.26588075 216.58374023 190.26416016 C199.79445482 218.43583013 173.21159005 236.74729481 142 246 C138.68023776 246.83215374 135.37627988 247.45392343 132 248 C130.374431 248.35154582 128.74944352 248.70578965 127.125 249.0625 C85.43682896 256.68838495 42.37992126 251 0 251 C0 168.17 0 85.34 0 0 Z " fill="#08146F" transform="translate(669,257)"/>
<path d="M0 0 C15.3523886 -0.09391012 30.70475539 -0.16420586 46.05736446 -0.20724869 C53.187674 -0.22777549 60.3178039 -0.25570395 67.44799805 -0.30175781 C73.67084706 -0.34193159 79.89356585 -0.36750438 86.11654097 -0.37635398 C89.40423774 -0.38151783 92.69148061 -0.39562084 95.97907829 -0.42292023 C126.4417275 -0.66561065 150.4526027 5.43292432 173 27 C173.68835938 27.61359375 174.37671875 28.2271875 175.0859375 28.859375 C190.67466442 43.27740701 200.00359133 66.14535823 202 87 C202.14227571 90.90114296 202.1366702 94.79924271 202.12939453 98.70263672 C202.13202301 100.4427729 202.13202301 100.4427729 202.13470459 102.21806335 C202.13909329 106.03862011 202.13619676 109.85913031 202.1328125 113.6796875 C202.13348612 116.33529722 202.13445506 118.99090553 202.13571167 121.64651489 C202.13752691 127.20282494 202.13514241 132.75912166 202.13037109 138.31542969 C202.12491363 144.74518008 202.12670445 151.17489883 202.1321975 157.60464847 C202.13672788 163.12832914 202.13738003 168.65200026 202.13475883 174.17568219 C202.13319771 177.47376498 202.13338932 180.77182955 202.13629532 184.06991196 C202.13881927 187.73787366 202.13498566 191.40577341 202.12939453 195.07373047 C202.13141876 196.17187576 202.13344299 197.27002106 202.13552856 198.40144348 C202.13270874 199.39398636 202.12988892 200.38652924 202.12698364 201.40914917 C202.1264181 202.71044927 202.1264181 202.71044927 202.12584114 204.03803825 C202 206 202 206 201 207 C199.13790254 207.10527436 197.27177888 207.13966835 195.40672302 207.14717102 C194.19159027 207.15432632 192.97645752 207.16148163 191.72450256 207.16885376 C190.36508204 207.17169452 189.00566125 207.17440619 187.64624023 207.17700195 C186.22379387 207.18326444 184.80134916 207.18991105 183.37890625 207.19691467 C178.68881378 207.21801212 173.99872083 207.22833362 169.30859375 207.23828125 C167.6915237 207.242329 166.07445381 207.24644593 164.45738411 207.25063133 C156.84770218 207.26970845 149.23803001 207.28392485 141.62832874 207.2922433 C132.87031532 207.30197593 124.11255733 207.32817983 115.35463375 207.36874419 C108.57395047 207.39906022 101.79333964 207.4137274 95.01258999 207.41702431 C90.96991699 207.41936052 86.927516 207.42812957 82.88491631 207.45348549 C79.06729431 207.47703843 75.25011796 207.48089233 71.43244171 207.47072411 C69.3910638 207.47000467 67.34970715 207.48891094 65.3084259 207.50878906 C46.66860801 207.40585572 31.17740013 202.01412614 17.73046875 188.859375 C4.12659158 174.6132547 -0.49278708 157.89448226 -0.34057617 138.61450195 C-0.33972819 137.09565752 -0.34020838 135.57681186 -0.34190369 134.05796814 C-0.34275839 129.96773087 -0.3252186 125.87776182 -0.30418181 121.78758645 C-0.28532663 117.50083572 -0.28365765 113.21407767 -0.28010559 108.92729187 C-0.27081095 100.8244261 -0.24623241 92.7216829 -0.21605712 84.61887091 C-0.1824324 75.38785353 -0.16600688 66.15683005 -0.15097082 56.92576659 C-0.11968032 37.95044177 -0.06697046 18.97523077 0 0 Z " fill="#5A6DFC" transform="translate(114,363)"/>
<path d="M0 0 C16.17 0 32.34 0 49 0 C52.3 4.62 55.6 9.24 59 14 C61.26365311 17.06839783 63.53260959 20.13134479 65.8125 23.1875 C70.61100293 29.65189331 75.24093751 36.20576332 79.75 42.875 C84.16606548 49.40580106 88.75651007 55.70927491 93.6171875 61.9140625 C97.43540427 66.85896618 101.0143242 71.96955997 104.62548828 77.06640625 C111.71135519 87.03444637 118.91974699 96.91407703 126.1875 106.75 C131.00285057 113.26724298 135.75864444 119.82113274 140.453125 126.42578125 C144.35012873 131.90536375 148.29856562 137.34797593 152.23828125 142.796875 C157.8284795 150.52911183 163.41361611 158.26500693 169 166 C169.33 111.22 169.66 56.44 170 0 C186.5 0 203 0 220 0 C220 82.5 220 165 220 250 C204.16 250 188.32 250 172 250 C165.07 240.595 165.07 240.595 158 231 C155.22673229 227.24499177 155.22673229 227.24499177 152.453125 223.49023438 C146.88663207 215.95107965 141.3699881 208.37838785 135.89648438 200.77148438 C131.95125883 195.29598953 127.9527278 189.86180184 123.9375 184.4375 C117.96093076 176.35626094 112.14086315 168.17421246 106.36865234 159.94628906 C98.90393722 149.3311073 91.27739386 138.82989967 83.67333984 128.31445312 C80.94736862 124.54406982 78.22376931 120.77197414 75.5 117 C72.15688165 112.37063705 68.81338065 107.74155174 65.46875 103.11328125 C64.59766602 101.90768555 64.59766602 101.90768555 63.70898438 100.67773438 C62.60627308 99.15158194 61.50341901 97.62553265 60.40039062 96.09960938 C59.4060178 94.72327516 58.41310672 93.34588331 57.421875 91.96728516 C56.46122822 90.63814852 55.49223122 89.31501324 54.515625 87.99755859 C51 83.21418539 51 83.21418539 51 81 C50.34 81 49.68 81 49 81 C49 136.77 49 192.54 49 250 C32.83 250 16.66 250 0 250 C0 167.5 0 85 0 0 Z " fill="#07136D" transform="translate(1345,257)"/>
<path d="M0 0 C16.70498892 13.76069588 29.75481458 31.65442682 32.3125 53.6875 C32.395 54.3280835 32.4775 54.96866699 32.5625 55.62866211 C35.72778876 81.45845052 31.52695777 104.26071165 16.3125 125.6875 C-0.15220087 145.75385418 -23.39364097 158.1872789 -49.27734375 161.3359375 C-78.54967674 164.04229599 -107.81398125 158.24197061 -130.98022461 139.52563477 C-147.7964874 125.52365926 -159.79793155 104.86545929 -162.4453125 82.95703125 C-164.37634995 56.88802564 -158.67947974 34.39842458 -142.6875 13.6875 C-142.2440625 13.0996875 -141.800625 12.511875 -141.34375 11.90625 C-127.56997991 -5.59016065 -104.07696914 -16.78971288 -82.37988281 -20.01953125 C-52.63148759 -23.25657099 -24.22904666 -17.95698848 0 0 Z " fill="#07136E" transform="translate(1086.6875,350.3125)"/>
<path d="M0 0 C19.28945623 15.03878108 27.0560714 34.62494779 32.05078125 57.93359375 C32.05078125 68.49359375 32.05078125 79.05359375 32.05078125 89.93359375 C-7.21921875 89.93359375 -46.48921875 89.93359375 -86.94921875 89.93359375 C-84.24144731 103.47245093 -80.22650728 112.55184282 -68.71875 120.5390625 C-61.20315927 124.32335854 -53.79234915 125.46754612 -45.44921875 125.37109375 C-44.52794189 125.36352051 -43.60666504 125.35594727 -42.6574707 125.34814453 C-36.08871593 125.1884286 -30.60361334 124.50770227 -24.94921875 120.93359375 C-24.23894531 120.48628906 -23.52867188 120.03898438 -22.796875 119.578125 C-16.72445971 115.3602276 -12.24159595 109.89522875 -7.94921875 103.93359375 C-4.43749637 105.57407954 -1.28150805 107.61183026 1.953125 109.7421875 C2.51270401 110.10957535 3.07228302 110.4769632 3.64881897 110.85548401 C5.42999745 112.02530417 7.20925144 113.19800906 8.98828125 114.37109375 C10.76400811 115.54019236 12.54015289 116.70864498 14.31703186 117.87599182 C15.93221584 118.93737688 17.54609985 120.00073941 19.15991211 121.06420898 C21.75962903 122.74531974 24.38529302 124.35943825 27.05078125 125.93359375 C25.16870561 136.19320119 13.29083669 145.94545428 5.3203125 152.01171875 C-16.12634206 166.24759335 -43.27355038 170.52013345 -68.43994141 165.85693359 C-91.23224741 160.81618132 -111.13189551 147.42681238 -123.94921875 127.93359375 C-126.71763353 123.11996681 -128.86311676 118.07169152 -130.94921875 112.93359375 C-131.54669922 111.55107422 -131.54669922 111.55107422 -132.15625 110.140625 C-141.55243199 86.87891602 -139.59382787 59.95583598 -130.17919922 37.06103516 C-120.90939199 15.7990187 -104.37578793 -1.04602973 -82.9453125 -10.00390625 C-55.33005347 -19.797062 -24.22694342 -16.97490473 0 0 Z " fill="#08146E" transform="translate(1732.94921875,345.06640625)"/>
<path d="M0 0 C82.95092422 0 82.95092422 0 107.19140625 24.03125 C123.93156544 41.34443557 128.56516612 64.71558937 128.28125 87.9765625 C127.60496473 109.29983697 119.01457349 128.77107086 103.84106445 143.76586914 C76.0823386 169.70928703 34.5559901 163 0 163 C0 109.21 0 55.42 0 0 Z " fill="#FCFCFD" transform="translate(720,301)"/>
<path d="M0 0 C0.65355469 0.20898926 1.30710937 0.41797852 1.98046875 0.63330078 C15.92472308 5.27790645 34.72076034 15.0113306 42.328125 28.32421875 C42.54984375 28.87722656 42.7715625 29.43023437 43 30 C42.15179687 30.72703125 41.30359375 31.4540625 40.4296875 32.203125 C39.86958984 32.68330078 39.30949219 33.16347656 38.73242188 33.65820312 C37.48148639 34.73024563 36.23017682 35.80185176 34.97851562 36.87304688 C31.69824836 39.68142754 28.42415075 42.49633273 25.1640625 45.328125 C24.24197998 46.12621582 24.24197998 46.12621582 23.30126953 46.94042969 C22.13062321 47.95399552 20.9621976 48.97013394 19.79638672 49.98925781 C16.35330395 52.96390092 12.83599689 55.55050801 9 58 C8.47792969 57.49210937 7.95585938 56.98421875 7.41796875 56.4609375 C-4.43576634 45.37530783 -17.19996008 40.30164082 -33.4765625 40.71484375 C-48.4766613 41.9288207 -59.55801523 47.57101701 -69.5703125 58.75390625 C-78.02397037 69.66266835 -78.18927648 84.83954488 -77 98 C-74.33058823 109.91060407 -66.97359264 120.02715784 -57 127 C-48.14098458 131.8095358 -40.70096683 133.1941741 -30.75 133.25 C-29.84636719 133.270625 -28.94273438 133.29125 -28.01171875 133.3125 C-15.86929899 133.38238443 -4.43231592 128.4854733 4.625 120.4296875 C6.23317079 118.84195323 6.23317079 118.84195323 8 116 C11.92199114 116.58238383 14.08042146 118.47028389 17.0625 121 C18.031875 121.81339844 19.00125 122.62679687 20 123.46484375 C20.99 124.30144531 21.98 125.13804687 23 126 C24.85108918 127.52457762 26.70518319 129.04551539 28.5625 130.5625 C29.45710938 131.2946875 30.35171875 132.026875 31.2734375 132.78125 C35.49344069 136.21529271 39.74346988 139.61139576 44 143 C37.04978407 152.89879239 29.50652122 159.94749885 19 166 C18.34386719 166.37898437 17.68773437 166.75796875 17.01171875 167.1484375 C-8.27076972 180.68296023 -37.99086259 181.0107081 -65.10546875 173.31640625 C-88.60565293 165.73512078 -106.77661188 150.18894358 -119 129 C-119.42925781 128.27167969 -119.85851563 127.54335938 -120.30078125 126.79296875 C-129.92718809 109.13836161 -131.3866896 82.21813739 -126 63 C-121.74969205 49.63477383 -115.35195835 37.47489519 -106 27 C-105.32324219 26.24074219 -104.64648438 25.48148437 -103.94921875 24.69921875 C-78.06991227 -2.69405081 -35.45699397 -11.40813046 0 0 Z " fill="#08146E" transform="translate(1271,334)"/>
<path d="M0 0 C5.76193204 4.66665998 11.97681063 9.74827926 16 16 C16.10546875 18.4921875 16.10546875 18.4921875 15 21 C13.13990524 22.90459464 11.38543717 24.48938629 9.3125 26.125 C8.73959229 26.59075439 8.16668457 27.05650879 7.57641602 27.53637695 C6.35735137 28.52334886 5.1334824 29.50441145 3.90527344 30.47998047 C1.97457417 32.02028462 0.06841349 33.58744007 -1.8359375 35.16015625 C-3.07718568 36.17042601 -4.31934763 37.17957431 -5.5625 38.1875 C-6.43684692 38.90993896 -6.43684692 38.90993896 -7.32885742 39.64697266 C-10.58854735 42.24199181 -11.68289741 43 -16 43 C-18.078125 40.98828125 -18.078125 40.98828125 -20.25 38.3125 C-26.51139102 31.04352881 -33.01845249 26.58885701 -42.76953125 25.62890625 C-50.57350021 25.39549507 -57.9348683 25.37865843 -64 31 C-66.08997616 34.46067481 -66.48574662 36.95211149 -66 41 C-62.74472277 47.14885698 -58.91652803 49.47745981 -52.453125 51.53515625 C-50.72085956 52.05140304 -48.98639886 52.5603314 -47.25 53.0625 C-46.3940625 53.31837891 -45.538125 53.57425781 -44.65625 53.83789062 C-40.53426609 55.05262679 -36.42753587 56.15407522 -32.22265625 57.04296875 C-26.47998042 58.27661338 -21.33743498 60.58608468 -16 63 C-14.99453125 63.4434375 -13.9890625 63.886875 -12.953125 64.34375 C0.345836 70.54533803 10.61920949 79.44219551 16.375 93.125 C19.71645838 103.27900067 20.0364839 114.75860459 17 125 C16.79246094 125.75539063 16.58492187 126.51078125 16.37109375 127.2890625 C11.93507413 142.04199632 2.45112941 152.67725997 -11 160 C-31.90797058 171.11744576 -59.38066739 170.41905949 -81.6640625 163.93359375 C-96.57544311 158.54200864 -112.29965775 148.66450149 -121 135 C-120.61854036 131.50284512 -119.35348401 130.07370001 -116.67578125 127.8984375 C-115.98307129 127.33012207 -115.29036133 126.76180664 -114.57666016 126.17626953 C-113.45590088 125.28464111 -113.45590088 125.28464111 -112.3125 124.375 C-111.55243652 123.76124512 -110.79237305 123.14749023 -110.00927734 122.51513672 C-105.12979531 118.60849823 -100.182398 114.79854637 -95.125 111.125 C-94.26128784 110.49150635 -94.26128784 110.49150635 -93.38012695 109.84521484 C-89.36601811 107 -89.36601811 107 -86 107 C-84.7109375 108.46875 -84.7109375 108.46875 -83.375 110.5 C-76.6238047 119.87850776 -68.38965744 125.70077943 -57 128 C-47.46711425 128.78794855 -39.08481575 128.09265658 -31.4375 121.9375 C-28.92244726 118.54764631 -28.58049725 115.15358357 -28.671875 110.98828125 C-29.26713366 107.38129723 -31.1292949 106.12432178 -34 104 C-41.50557559 99.59267209 -49.32105428 97.28314996 -57.6875 95.0625 C-77.17167465 89.66169907 -96.43743606 83.90508083 -107.53125 65.453125 C-113.82337516 53.3810244 -115.57551411 38.38950667 -112.16015625 25.05859375 C-106.79362679 10.04315275 -96.45778857 -0.36446844 -82.39282227 -7.21362305 C-56.53323296 -19.12951872 -23.36872813 -16.72314857 0 0 Z " fill="#07136E" transform="translate(1903,344)"/>
<path d="M0 0 C16.17 0 32.34 0 49 0 C49 18.48 49 36.96 49 56 C60.22 56 71.44 56 83 56 C83 69.53 83 83.06 83 97 C71.78 97 60.56 97 49 97 C49.06288446 108.14409979 49.1382654 119.28792194 49.23571491 130.43177414 C49.28046254 135.606193 49.319709 140.78053232 49.34643555 145.95507812 C49.37242467 150.94782959 49.41279593 155.9402757 49.46318626 160.93283844 C49.47988472 162.83859716 49.49138041 164.74440873 49.49761391 166.65023041 C49.50722264 169.31760246 49.53524282 171.98418803 49.56762695 174.65136719 C49.56619186 175.4411496 49.56475677 176.23093201 49.5632782 177.04464722 C49.63762261 181.36790905 50.054428 183.79399419 53 187 C53 187.66 53 188.32 53 189 C61.53890213 192.41556085 67.43298977 191.18286761 75.6796875 187.875 C78 187 78 187 80 187 C80.71907047 191.42802066 81.43088791 195.85713048 82.13623047 200.28735352 C82.37678983 201.79189895 82.61927128 203.29613846 82.86376953 204.80004883 C83.2164213 206.97137614 83.56196963 209.1437378 83.90625 211.31640625 C84.0156189 211.98023819 84.12498779 212.64407013 84.2376709 213.32801819 C84.9040337 217.5892206 85.09754979 221.69073797 85 226 C68.63960487 234.44730606 49.85758059 236.83529935 31.96875 232.046875 C20.59335282 228.03555073 11.75101685 221.68974319 6 211 C-0.46778931 196.07758415 -0.28590822 180.31501071 -0.1953125 164.3828125 C-0.19157353 162.42984158 -0.18873075 160.47686875 -0.18673706 158.52389526 C-0.17917012 153.43095547 -0.15958282 148.33813322 -0.1373291 143.24523926 C-0.11671957 138.02939442 -0.10770332 132.81353024 -0.09765625 127.59765625 C-0.07632907 117.39837805 -0.04120512 107.19921727 0 97 C-11.88 97 -23.76 97 -36 97 C-36 83.47 -36 69.94 -36 56 C-24.12 56 -12.24 56 0 56 C0 37.52 0 19.04 0 0 Z " fill="#08146E" transform="translate(1975,278)"/>
<path d="M0 0 C0.8971875 0.4021875 1.794375 0.804375 2.71875 1.21875 C15.26701276 7.42393488 21.72820532 16.40103831 27 29 C30.04050966 39.15946446 29.63364433 54.13887662 25.26953125 63.74609375 C18.42343034 75.90055598 9.40110966 85.30840865 -4 90 C-16.83973302 92.93939526 -32.60220874 93.11418428 -44 86 C-45.07507813 85.34837891 -45.07507813 85.34837891 -46.171875 84.68359375 C-53.94527636 79.39587306 -61.05204925 72.00762729 -64 63 C-64.2470166 62.35844971 -64.4940332 61.71689941 -64.74853516 61.0559082 C-66.91694811 55.21297954 -67.5451789 49.96066898 -67.5 43.75 C-67.49427979 42.8312207 -67.48855957 41.91244141 -67.48266602 40.96582031 C-67.14147205 27.89246211 -62.19682997 17.88446756 -52.75 8.84765625 C-38.93159893 -3.04414082 -17.07536493 -7.93643722 0 0 Z " fill="#FBFCFC" transform="translate(1042,377)"/>
<path d="M0 0 C6.59564756 3.54047302 11.01968914 7.67757697 15 14 C15.598125 14.94875 16.19625 15.8975 16.8125 16.875 C18 20 18 20 19 30 C-4.43 30 -27.86 30 -52 30 C-50.57496215 18.59969718 -46.70397364 11.68979382 -38 4 C-26.34124145 -3.16015569 -12.83354135 -6.36870498 0 0 Z " fill="#F8F8FB" transform="translate(1698,372)"/>
<path d="M0 0 C3.82168851 3.49012649 5.83254759 6.8395894 6.23828125 12.07421875 C6.50712979 25.16289749 6.50712979 25.16289749 2 31 C-2.71504393 35.84601738 -8.81790926 38.08524954 -15.5 38.5 C-21.33404024 38.27870882 -25.434086 35.48776434 -29.5390625 31.5078125 C-34.30166523 26.13247725 -35.43590281 21.56505247 -35.23828125 14.5546875 C-34.65594874 8.31131925 -32.8079061 4.40969782 -28.1875 0.125 C-18.8451002 -7.34551641 -9.58929954 -6.32696052 0 0 Z " fill="#5F71FC" transform="translate(532,138)"/>
<path d="M0 0 C4.62 0 9.24 0 14 0 C14 0.33 14 0.66 14 1 C4.34346884 3.38222795 -5.13325025 3.19538118 -15 3 C-15 2.67 -15 2.34 -15 2 C-10.05 2 -5.1 2 0 2 C0 1.34 0 0.68 0 0 Z " fill="#3F468F" transform="translate(2032,509)"/>
<path d="M0 0 C-0.33 0.99 -0.66 1.98 -1 3 C-3.06640625 3.73046875 -3.06640625 3.73046875 -5.5625 4.1875 C-6.38878906 4.34605469 -7.21507812 4.50460937 -8.06640625 4.66796875 C-9.02353516 4.83232422 -9.02353516 4.83232422 -10 5 C-10 4.34 -10 3.68 -10 3 C-11.65 3 -13.3 3 -15 3 C-15 2.67 -15 2.34 -15 2 C-13.06302033 1.66365624 -11.12539514 1.33102835 -9.1875 1 C-7.56908203 0.7215625 -7.56908203 0.7215625 -5.91796875 0.4375 C-3 0 -3 0 0 0 Z " fill="#1D257B" transform="translate(794,461)"/>
<path d="M0 0 C0 0.66 0 1.32 0 2 C-3.14930893 3.04976964 -5.38814456 3.10131595 -8.6875 3.0625 C-9.68136719 3.05347656 -10.67523437 3.04445313 -11.69921875 3.03515625 C-12.83810547 3.01775391 -12.83810547 3.01775391 -14 3 C-14 2.34 -14 1.68 -14 1 C-9.27616037 0.34843591 -4.78025483 -0.11950637 0 0 Z " fill="#1E267A" transform="translate(1708,508)"/>
<path d="M0 0 C0.66 0.99 1.32 1.98 2 3 C0.02 5.31 -1.96 7.62 -4 10 C-4.99 9.34 -5.98 8.68 -7 8 C-4.69 5.36 -2.38 2.72 0 0 Z " fill="#1C257E" transform="translate(1722,453)"/>
<path d="M0 0 C0.33 0.99 0.66 1.98 1 3 C-1.31 5.31 -3.62 7.62 -6 10 C-6.99 9.67 -7.98 9.34 -9 9 C-6.03 6.03 -3.06 3.06 0 0 Z " fill="#1B2279" transform="translate(1171,355)"/>
<path d="M0 0 C0 0.99 0 1.98 0 3 C-1.96875 4.82421875 -1.96875 4.82421875 -4.5 6.6875 C-5.3353125 7.31011719 -6.170625 7.93273437 -7.03125 8.57421875 C-7.6809375 9.04472656 -8.330625 9.51523437 -9 10 C-9.66 9.67 -10.32 9.34 -11 9 C-9.73113036 7.87278564 -8.45982438 6.74831342 -7.1875 5.625 C-6.47980469 4.99851562 -5.77210937 4.37203125 -5.04296875 3.7265625 C-3 2 -3 2 0 0 Z " fill="#161F75" transform="translate(1635,343)"/>
<path d="M0 0 C0.66 0.66 1.32 1.32 2 2 C1.625 5.125 1.625 5.125 1 8 C0.34 8 -0.32 8 -1 8 C-1 8.66 -1 9.32 -1 10 C-1.66 10 -2.32 10 -3 10 C-2.01 6.7 -1.02 3.4 0 0 Z " fill="#1B2378" transform="translate(844,410)"/>
<path d="M0 0 C1.66832577 2.50248865 2.62381674 4.41149187 3.625 7.1875 C4.01558594 8.26064453 4.01558594 8.26064453 4.4140625 9.35546875 C4.60742188 9.89816406 4.80078125 10.44085938 5 11 C4.01 11 3.02 11 2 11 C-0.67927341 6.98108988 -0.15601248 4.75838077 0 0 Z " fill="#242C80" transform="translate(977,437)"/>
<path d="M0 0 C-2.52956528 3.0916909 -5.22454612 3.90931332 -9 5 C-9.66 4.34 -10.32 3.68 -11 3 C-7.14243493 0.84694043 -4.44870215 -0.39253254 0 0 Z " fill="#1D267F" transform="translate(1655,335)"/>
<path d="M0 0 C4.46839215 -0.21278058 7.82262526 0.40861915 12 2 C12 2.33 12 2.66 12 3 C3.42857143 3.14285714 3.42857143 3.14285714 0 2 C0 1.34 0 0.68 0 0 Z " fill="#2C337F" transform="translate(1217,508)"/>
<path d="M0 0 C0.33 0 0.66 0 1 0 C0.67 3.63 0.34 7.26 0 11 C-0.66 11 -1.32 11 -2 11 C-2 8.36 -2 5.72 -2 3 C-1.34 3 -0.68 3 0 3 C0 2.01 0 1.02 0 0 Z " fill="#1B2178" transform="translate(1146,398)"/>
<path d="M0 0 C0.66 0.33 1.32 0.66 2 1 C-0.97 4.96 -0.97 4.96 -4 9 C-4.99 8.67 -5.98 8.34 -7 8 C-4.69 5.36 -2.38 2.72 0 0 Z " fill="#19237B" transform="translate(1620,356)"/>
<path d="M0 0 C0.66 1.32 1.32 2.64 2 4 C1.01 4.495 1.01 4.495 0 5 C0 4.34 0 3.68 0 3 C-2.31 3.33 -4.62 3.66 -7 4 C-3.375 0 -3.375 0 0 0 Z " fill="#192079" transform="translate(1817,451)"/>
<path d="M0 0 C2.97 0 5.94 0 9 0 C9 0.66 9 1.32 9 2 C9.66 2.33 10.32 2.66 11 3 C9.741875 2.87625 8.48375 2.7525 7.1875 2.625 C6.12595703 2.52058594 6.12595703 2.52058594 5.04296875 2.4140625 C3 2 3 2 0 0 Z " fill="#3E438E" transform="translate(1822,507)"/>
<path d="M0 0 C0.33 0.99 0.66 1.98 1 3 C-2.22791555 5.1519437 -3.28400809 5.20086443 -7 5 C-2.25 1.125 -2.25 1.125 0 0 Z " fill="#1B2177" transform="translate(1052,459)"/>
<path d="M0 0 C-0.33 0.66 -0.66 1.32 -1 2 C-3.32156597 2.40729228 -5.6568787 2.74438677 -8 3 C-8 2.01 -8 1.02 -8 0 C-4.71303767 -0.79953138 -3.28976808 -1.09658936 0 0 Z " fill="#18237B" transform="translate(1664,333)"/>
<path d="M0 0 C2.76223278 2.76223278 2.57856291 5.20706617 3 9 C0 7 0 7 -0.75 3.9375 C-0.8325 2.968125 -0.915 1.99875 -1 1 C-0.67 0.67 -0.34 0.34 0 0 Z " fill="#3B418D" transform="translate(1917,434)"/>
<path d="M0 0 C2.62187494 1.04874998 3.79371361 1.64931313 5.25 4.125 C5.4975 4.74375 5.745 5.3625 6 6 C5.01 6 4.02 6 3 6 C0 2.66666667 0 2.66666667 0 0 Z " fill="#111B79" transform="translate(1482,382)"/>
</svg>
